<?xml version="1.0" encoding="utf-8"?><svg xmlns="http://www.w3.org/2000/svg" xmlns:xlink="http://www.w3.org/1999/xlink" width="559.31" height="187.07" viewBox="0 0 559.31 187.07"><defs><clipPath id="clip-path" transform="translate(0 0)"><path d="M125,73.65v-13A58.64,58.64,0,1,0,7.73,58.62v15H5.24A5.25,5.25,0,0,0,0,78.9v41.82a66.36,66.36,0,0,0,66.35,66.35h0a66.36,66.36,0,0,0,66.35-66.35V78.9a5.25,5.25,0,0,0-5.24-5.25Zm-97.11-15a38.49,38.49,0,1,1,77,0v15h-77Z" fill="none"/></clipPath></defs><title>ssl-img</title><g style="isolation:isolate"><g id="Layer_2" data-name="Layer 2"><g id="Content"><path d="M125,74H104.84V58.62a38.49,38.49,0,1,0-77,0V74H7.73V58.62a58.62,58.62,0,0,1,117.24,0Z" transform="translate(0 0)" fill="#d5d5d9"/><path d="M3.31,73.65H129.39A3.31,3.31,0,0,1,132.7,77v78.16a31.93,31.93,0,0,1-31.93,31.93H31.93A31.93,31.93,0,0,1,0,155.13V77a3.31,3.31,0,0,1,3.31-3.31Z" fill="#8ebd00"/><g clip-path="url(#clip-path)"><rect x="66.35" y="73.65" width="66.35" height="113.41" fill="#134200" opacity="0.1" style="mix-blend-mode:multiply"/></g><polygon points="60.45 152.9 29.29 123.69 42.58 111.24 60.45 127.99 96.36 94.32 109.64 106.78 60.45 152.9" fill="#fff"/><path d="M186.68,75.75a48.23,48.23,0,0,1-6.94-3.24,20.8,20.8,0,0,1-5.23-4.21,17.46,17.46,0,0,1-3.36-5.86A25,25,0,0,1,170,54.25,24.75,24.75,0,0,1,172,44a20.31,20.31,0,0,1,5.63-7.45A24.64,24.64,0,0,1,186.34,32a39.79,39.79,0,0,1,11.49-1.54,54.3,54.3,0,0,1,10.87,1,83.84,83.84,0,0,1,10.64,3,40.68,40.68,0,0,1-3.64,13l-3.47-1.36a26.2,26.2,0,0,0-3.76-1.14,42.48,42.48,0,0,0-4.49-.74,50.92,50.92,0,0,0-5.69-.28,23,23,0,0,0-3.93.34,10.86,10.86,0,0,0-3.58,1.25,7.22,7.22,0,0,0-2.62,2.67,9.18,9.18,0,0,0-1,4.61,8.08,8.08,0,0,0,.8,3.81,7.93,7.93,0,0,0,2.16,2.62A13.53,13.53,0,0,0,193.17,61c1.14.49,2.27,1,3.41,1.42l6.83,2.62q4.32,1.71,7.85,3.52a21.31,21.31,0,0,1,6,4.5A18.9,18.9,0,0,1,221,79.56,28.09,28.09,0,0,1,222.41,89a26,26,0,0,1-2.11,10.58,22.72,22.72,0,0,1-6.08,8.19,28.83,28.83,0,0,1-9.84,5.35A43.06,43.06,0,0,1,190.89,115c-2.5,0-4.74-.07-6.71-.23a48.21,48.21,0,0,1-5.63-.74,51,51,0,0,1-5.29-1.3q-2.62-.8-5.46-1.94a48,48,0,0,1,1.25-6.88q.91-3.59,2.16-7.22a60.37,60.37,0,0,0,9,2.9,40.36,40.36,0,0,0,9,1q7.17,0,11.26-2.67t4.1-8.13a9.74,9.74,0,0,0-1-4.56,10.13,10.13,0,0,0-2.5-3.07,15.42,15.42,0,0,0-3.47-2.1q-1.94-.85-4-1.65Z" transform="translate(0 0)" fill="#262626"/><path d="M234.35,31.84h46.42a35.66,35.66,0,0,1,.68,6.94,36.78,36.78,0,0,1-.68,7.16H251V63.69h23.67a38.74,38.74,0,0,1,.68,7.06,38,38,0,0,1-.68,7.16H251V99.53h30.61a35.66,35.66,0,0,1,.68,6.94,37,37,0,0,1-.68,7.17H234.35Z" transform="translate(0 0)" fill="#262626"/><path d="M348.8,98.17a45.17,45.17,0,0,1,2.45,6.54,46.56,46.56,0,0,1,1.42,6.77A54.46,54.46,0,0,1,342,114.32a72,72,0,0,1-10.18.68,42.55,42.55,0,0,1-17-3.13,33.59,33.59,0,0,1-12.23-8.76,37.27,37.27,0,0,1-7.45-13.36,54.4,54.4,0,0,1-2.51-16.84A52.93,52.93,0,0,1,295.33,56a39.4,39.4,0,0,1,7.57-13.48,34.09,34.09,0,0,1,12.17-8.87,40.25,40.25,0,0,1,16.44-3.19,69.75,69.75,0,0,1,10.07.68A44.26,44.26,0,0,1,351.53,34a25.3,25.3,0,0,1-1.36,6.65q-1.14,3.26-2.51,6.55a50.45,50.45,0,0,0-7.05-1.94,40.42,40.42,0,0,0-7.28-.57q-10.92,0-16.78,7.11t-5.86,21.11q0,27.75,23.55,27.76a42.37,42.37,0,0,0,7.39-.57A48.66,48.66,0,0,0,348.8,98.17Z" transform="translate(0 0)" fill="#262626"/><path d="M364.62,31.84a42.07,42.07,0,0,1,4.2-.46c1.37-.07,2.77-.11,4.21-.11s2.62,0,4,.11,2.76.23,4.21.46V74.27a118.27,118.27,0,0,0,.51,11.89,25.12,25.12,0,0,0,2.05,8.19,10.17,10.17,0,0,0,4.32,4.78,14.81,14.81,0,0,0,7.22,1.54,14.5,14.5,0,0,0,7.17-1.54,10.34,10.34,0,0,0,4.27-4.78,25.39,25.39,0,0,0,2-8.19,115.07,115.07,0,0,0,.52-11.89V31.84c1.51-.23,3-.38,4.32-.46s2.69-.11,4-.11,2.75,0,4.15.11a42.16,42.16,0,0,1,4.27.46v46A77.46,77.46,0,0,1,424.68,93a29.58,29.58,0,0,1-4.89,11.77,23.1,23.1,0,0,1-9.44,7.57q-5.91,2.67-15,2.67t-15-2.67a23.07,23.07,0,0,1-9.45-7.57A29.73,29.73,0,0,1,366,93a78.27,78.27,0,0,1-1.36-15.19Z" transform="translate(0 0)" fill="#262626"/><path d="M442.2,31.84q5-.57,9.39-1c2.92-.26,6.16-.4,9.73-.4a66.9,66.9,0,0,1,12.34,1.14,33.44,33.44,0,0,1,11,4,22.69,22.69,0,0,1,7.91,7.85q3,4.95,3,12.57a25.7,25.7,0,0,1-1.14,8,24.38,24.38,0,0,1-2.9,6.09,25.09,25.09,0,0,1-3.81,4.49,27.26,27.26,0,0,1-3.87,3l-1.93,1.25,19.91,34.58c-1.52.15-3.11.31-4.78.46s-3.38.23-5.12.23a52.59,52.59,0,0,1-8.53-.69L462,75.52l2.73-1.36c1.06-.53,2.35-1.21,3.87-2A24.22,24.22,0,0,0,473,69a16.94,16.94,0,0,0,3.58-4.55A12.77,12.77,0,0,0,478,58.12q0-7.17-4.1-10.53a16.16,16.16,0,0,0-10.58-3.35,27.64,27.64,0,0,0-4.55.34v69.06c-1.36.15-2.73.28-4.09.39s-2.7.18-4,.18-2.66,0-4.1-.12-2.92-.23-4.44-.45Z" transform="translate(0 0)" fill="#262626"/><path d="M510.92,31.84h46.42a35.66,35.66,0,0,1,.68,6.94,36.78,36.78,0,0,1-.68,7.16H527.53V63.69h23.66a37.91,37.91,0,0,1,.69,7.06,37.21,37.21,0,0,1-.69,7.16H527.53V99.53h30.6a34.9,34.9,0,0,1,.68,6.94,36.2,36.2,0,0,1-.68,7.17H510.92Z" transform="translate(0 0)" fill="#262626"/><path d="M175.81,155.68a22.29,22.29,0,0,1-3.17-1.48,9.33,9.33,0,0,1-2.39-1.93,8,8,0,0,1-1.54-2.68,11.49,11.49,0,0,1-.54-3.74,11.34,11.34,0,0,1,.91-4.69,9.21,9.21,0,0,1,2.57-3.4,11.33,11.33,0,0,1,4-2.09,18.53,18.53,0,0,1,5.25-.7,25.19,25.19,0,0,1,5,.47,37.49,37.49,0,0,1,4.87,1.35,18.57,18.57,0,0,1-1.67,5.93l-1.59-.62a12.2,12.2,0,0,0-1.71-.52,19.66,19.66,0,0,0-2.06-.34,24.92,24.92,0,0,0-2.6-.13,9.93,9.93,0,0,0-1.79.16,4.76,4.76,0,0,0-1.64.57,3.27,3.27,0,0,0-1.2,1.22,4.2,4.2,0,0,0-.47,2.11,3.53,3.53,0,0,0,1.35,2.94,6.16,6.16,0,0,0,1.41.83c.52.23,1,.44,1.56.65l3.12,1.2c1.32.52,2.52,1.06,3.59,1.61a9.53,9.53,0,0,1,2.73,2.06,8.61,8.61,0,0,1,1.75,3,13.07,13.07,0,0,1,.62,4.3,11.87,11.87,0,0,1-1,4.83,10.3,10.3,0,0,1-2.79,3.75,13.11,13.11,0,0,1-4.5,2.45,19.61,19.61,0,0,1-6.16.88c-1.15,0-2.17,0-3.07-.1a25.15,25.15,0,0,1-2.58-.34c-.81-.16-1.62-.36-2.42-.6s-1.63-.54-2.49-.89a21.1,21.1,0,0,1,.57-3.14c.28-1.1.61-2.2,1-3.31a26.34,26.34,0,0,0,4.11,1.33A18.56,18.56,0,0,0,177,167a9.32,9.32,0,0,0,5.15-1.22,4.14,4.14,0,0,0,1.87-3.72,4.45,4.45,0,0,0-.44-2.08,4.78,4.78,0,0,0-1.14-1.41,7,7,0,0,0-1.59-1c-.59-.26-1.2-.51-1.82-.75Z" transform="translate(0 0)" fill="#bababd"/><path d="M203.13,155.68A22.43,22.43,0,0,1,200,154.2a9.51,9.51,0,0,1-2.39-1.93,7.83,7.83,0,0,1-1.53-2.68,11.22,11.22,0,0,1-.55-3.74,11.34,11.34,0,0,1,.91-4.69,9.35,9.35,0,0,1,2.58-3.4,11.2,11.2,0,0,1,4-2.09,18.55,18.55,0,0,1,5.26-.7,25.27,25.27,0,0,1,5,.47,37.37,37.37,0,0,1,4.86,1.35,18.55,18.55,0,0,1-1.66,5.93l-1.59-.62a12.35,12.35,0,0,0-1.72-.52,19.45,19.45,0,0,0-2.05-.34,25.12,25.12,0,0,0-2.61-.13,10,10,0,0,0-1.79.16,4.83,4.83,0,0,0-1.64.57,3.35,3.35,0,0,0-1.2,1.22,4.2,4.2,0,0,0-.46,2.11,3.8,3.8,0,0,0,.36,1.74,3.58,3.58,0,0,0,1,1.2,5.88,5.88,0,0,0,1.4.83c.52.23,1,.44,1.56.65l3.13,1.2c1.31.52,2.51,1.06,3.59,1.61a9.81,9.81,0,0,1,2.73,2.06,8.75,8.75,0,0,1,1.74,3,12.8,12.8,0,0,1,.63,4.3,11.87,11.87,0,0,1-1,4.83,10.39,10.39,0,0,1-2.78,3.75,13.3,13.3,0,0,1-4.5,2.45,19.67,19.67,0,0,1-6.17.88c-1.14,0-2.16,0-3.07-.1a24.59,24.59,0,0,1-2.57-.34c-.82-.16-1.62-.36-2.42-.6s-1.63-.54-2.5-.89a24,24,0,0,1,.57-3.14c.28-1.1.61-2.2,1-3.31a27,27,0,0,0,4.11,1.33,18.7,18.7,0,0,0,4.11.44,9.3,9.3,0,0,0,5.15-1.22,4.15,4.15,0,0,0,1.88-3.72,4.33,4.33,0,0,0-.45-2.08,4.49,4.49,0,0,0-1.14-1.41,7,7,0,0,0-1.59-1c-.59-.26-1.19-.51-1.82-.75Z" transform="translate(0 0)" fill="#bababd"/><path d="M224.93,135.6a22.82,22.82,0,0,1,3.69-.32,24.16,24.16,0,0,1,3.8.32v30.85h13a13.21,13.21,0,0,1,.21,1.69c0,.54,0,1.05,0,1.54s0,1.1,0,1.63a13.35,13.35,0,0,1-.21,1.7H224.93Z" transform="translate(0 0)" fill="#bababd"/><path d="M262,135.6h21.23a16,16,0,0,1,.31,3.17,16.52,16.52,0,0,1-.31,3.28H269.62v8.11h10.82a17.46,17.46,0,0,1,.31,3.23,17.12,17.12,0,0,1-.31,3.28H269.62v9.88h14a16,16,0,0,1,.32,3.18,16.66,16.66,0,0,1-.32,3.28H262Z" transform="translate(0 0)" fill="#bababd"/><path d="M289.65,135.6a16,16,0,0,1,3.07-.32,17.3,17.3,0,0,1,3.22.32l14.47,23.83V135.6a21.64,21.64,0,0,1,3.59-.32,15.29,15.29,0,0,1,3.12.32V173a17.28,17.28,0,0,1-3,.31,18.53,18.53,0,0,1-3.17-.31l-14.57-23.78V173a19.06,19.06,0,0,1-3.38.31,18.09,18.09,0,0,1-3.33-.31Z" transform="translate(0 0)" fill="#bababd"/><path d="M349.12,165.93a20.29,20.29,0,0,1,1.11,3,20.87,20.87,0,0,1,.66,3.1,24.9,24.9,0,0,1-4.87,1.3,32.35,32.35,0,0,1-4.66.31,19.59,19.59,0,0,1-7.75-1.43,15.37,15.37,0,0,1-5.59-4,17,17,0,0,1-3.41-6.11,25,25,0,0,1-1.14-7.7,24.37,24.37,0,0,1,1.19-7.73,18.18,18.18,0,0,1,3.46-6.16,15.59,15.59,0,0,1,5.57-4.06,18.48,18.48,0,0,1,7.52-1.46,32.64,32.64,0,0,1,4.6.31,20.2,20.2,0,0,1,4.56,1.31,11.35,11.35,0,0,1-.63,3c-.35,1-.73,2-1.14,3a22.19,22.19,0,0,0-3.23-.88,18,18,0,0,0-3.33-.26q-5,0-7.67,3.25t-2.68,9.65q0,12.69,10.77,12.69a18.81,18.81,0,0,0,3.38-.26A21.69,21.69,0,0,0,349.12,165.93Z" transform="translate(0 0)" fill="#bababd"/><path d="M356.92,135.6c1.53-.18,3-.32,4.29-.45s2.82-.18,4.45-.18a31.34,31.34,0,0,1,5.65.52,15.45,15.45,0,0,1,5,1.85,10.34,10.34,0,0,1,3.61,3.59,10.9,10.9,0,0,1,1.38,5.75,11.7,11.7,0,0,1-.52,3.67,11.35,11.35,0,0,1-3.07,4.84,11.49,11.49,0,0,1-1.77,1.37l-.88.58,9.1,15.81-2.18.21c-.76.07-1.55.11-2.34.11a24.05,24.05,0,0,1-3.9-.32L366,155.58l1.25-.63c.49-.24,1.08-.55,1.77-.94a10.92,10.92,0,0,0,2-1.43,7.72,7.72,0,0,0,1.63-2.08,6.88,6.88,0,0,0-1.19-7.7,7.42,7.42,0,0,0-4.84-1.53,13.19,13.19,0,0,0-2.08.15V173c-.63.06-1.25.13-1.88.18s-1.23.08-1.82.08-1.21,0-1.87-.06-1.34-.1-2-.2Z" transform="translate(0 0)" fill="#bababd"/><path d="M395.84,159.63l-11.66-24a30.7,30.7,0,0,1,4.37-.32,25.17,25.17,0,0,1,4,.32l7.39,17,7.28-17a24.39,24.39,0,0,1,3.95-.32,27.55,27.55,0,0,1,4,.32l-11.65,24v13.43q-1,.15-2,.21c-.62,0-1.25,0-1.87,0s-1.21,0-1.85,0-1.29-.11-2-.21Z" transform="translate(0 0)" fill="#bababd"/><path d="M419.3,135.44c1.6-.14,3.21-.25,4.84-.34s3.28-.13,4.95-.13a28.09,28.09,0,0,1,5.27.52,13.26,13.26,0,0,1,4.84,1.95,10.76,10.76,0,0,1,3.52,4,14.12,14.12,0,0,1,1.35,6.61,13.9,13.9,0,0,1-1.35,6.58,11,11,0,0,1-3.49,4,12.64,12.64,0,0,1-4.76,2,26.38,26.38,0,0,1-5.18.52c-.45,0-.87,0-1.27,0s-.78,0-1.12-.07v12a18.87,18.87,0,0,1-1.93.2c-.62,0-1.23.06-1.82.06s-1.16,0-1.82-.06-1.33-.1-2-.2Zm7.6,19.25a7.18,7.18,0,0,0,1.17.11h1.33a10,10,0,0,0,2.55-.34,6.08,6.08,0,0,0,2.21-1.12,5.48,5.48,0,0,0,1.53-2.06,7.7,7.7,0,0,0,.57-3.14,8.28,8.28,0,0,0-.57-3.26,5.47,5.47,0,0,0-3.74-3.27,9.61,9.61,0,0,0-2.55-.34l-1.07,0-1.43.13Z" transform="translate(0 0)" fill="#bababd"/><path d="M456.92,142.05h-9.31a16.51,16.51,0,0,1-.32-3.28,16,16,0,0,1,.32-3.17h26.27a16,16,0,0,1,.31,3.17,16.52,16.52,0,0,1-.31,3.28h-9.31v31c-.63.06-1.25.13-1.88.18s-1.23.08-1.82.08-1.22,0-1.9-.06-1.36-.1-2.05-.2Z" transform="translate(0 0)" fill="#bababd"/><path d="M479.13,135.6a23.58,23.58,0,0,1,3.8-.32,24.48,24.48,0,0,1,3.85.32V173a23.75,23.75,0,0,1-7.65,0Z" transform="translate(0 0)" fill="#bababd"/><path d="M509.31,173.63a16.82,16.82,0,0,1-7.28-1.46,13.55,13.55,0,0,1-5-4,17.44,17.44,0,0,1-2.94-6.09,29,29,0,0,1-1-7.67,29.65,29.65,0,0,1,1-7.73,17.61,17.61,0,0,1,2.94-6.16,13.43,13.43,0,0,1,5-4.06,18.88,18.88,0,0,1,14.56,0,13.43,13.43,0,0,1,5,4.06,17.61,17.61,0,0,1,2.94,6.16,29.65,29.65,0,0,1,1,7.73,29,29,0,0,1-1,7.67,17.44,17.44,0,0,1-2.94,6.09,13.55,13.55,0,0,1-5,4A16.82,16.82,0,0,1,509.31,173.63Zm0-6.35q8.07,0,8.06-12.9,0-6.45-2-9.68a6.58,6.58,0,0,0-6.06-3.22q-8.16,0-8.17,12.9T509.31,167.28Z" transform="translate(0 0)" fill="#bababd"/><path d="M531.84,135.6a16,16,0,0,1,3.07-.32,17.3,17.3,0,0,1,3.22.32l14.47,23.83V135.6a21.64,21.64,0,0,1,3.59-.32,15.29,15.29,0,0,1,3.12.32V173a17.28,17.28,0,0,1-3,.31,18.53,18.53,0,0,1-3.17-.31l-14.57-23.78V173a19.06,19.06,0,0,1-3.38.31,18.09,18.09,0,0,1-3.33-.31Z" transform="translate(0 0)" fill="#bababd"/></g></g></g></svg>