<?xml version="1.0" standalone="no"?>
<!DOCTYPE svg PUBLIC "-//W3C//DTD SVG 20010904//EN"
 "http://www.w3.org/TR/2001/REC-SVG-20010904/DTD/svg10.dtd">
<svg version="1.0" xmlns="http://www.w3.org/2000/svg"
 width="700.000000pt" height="700.000000pt" viewBox="0 0 700.000000 700.000000"
 preserveAspectRatio="xMidYMid meet">
<metadata>
Created by potrace 1.11, written by Peter Selinger 2001-2013
</metadata>
<g transform="translate(0.000000,700.000000) scale(0.100000,-0.100000)"
fill="#000000" stroke="none">
<path d="M0 3500 l0 -3500 3500 0 3500 0 0 3500 0 3500 -3500 0 -3500 0 0
-3500z m3742 1902 c123 -76 269 -168 325 -203 57 -35 124 -77 150 -94 27 -16
109 -67 183 -114 74 -46 171 -106 215 -134 44 -27 103 -64 130 -82 28 -18 118
-74 200 -125 184 -114 260 -161 348 -217 l67 -44 0 -1039 c0 -1002 -1 -1042
-19 -1090 -29 -77 -82 -135 -155 -170 l-64 -30 -1620 0 -1621 0 -53 23 c-71
32 -142 106 -168 174 -20 53 -20 72 -18 1095 l3 1041 765 478 c421 262 837
523 925 578 87 56 165 99 172 97 7 -3 113 -68 235 -144z"/>
<path d="M2095 4345 c-44 -22 -55 -46 -61 -133 l-6 -77 114 -72 113 -72 6 55
c11 95 74 154 163 154 101 0 166 -66 166 -166 0 -41 -6 -59 -29 -91 l-29 -41
48 -31 c53 -34 82 -69 105 -125 16 -37 89 -95 103 -82 4 4 7 141 7 304 0 330
-3 349 -60 376 -48 23 -594 23 -640 1z"/>
<path d="M2989 4271 c-36 -35 -39 -43 -39 -93 0 -58 20 -97 61 -119 14 -7 296
-10 889 -10 l868 1 49 33 c26 18 65 42 86 54 43 26 49 59 17 110 -40 67 15 63
-986 63 l-906 0 -39 -39z"/>
<path d="M2995 3859 c-80 -71 -60 -191 38 -228 43 -17 1045 -15 1074 2 48 26
369 231 383 244 12 11 -104 13 -723 13 l-736 0 -36 -31z"/>
<path d="M3094 3461 c3 -5 52 -37 108 -72 57 -34 135 -84 175 -111 40 -26 79
-48 86 -48 13 0 306 182 362 224 18 14 -18 15 -358 16 -222 0 -376 -4 -373 -9z"/>
</g>
</svg>
