<?xml version="1.0" standalone="no"?>
<!DOCTYPE svg PUBLIC "-//W3C//DTD SVG 20010904//EN"
 "http://www.w3.org/TR/2001/REC-SVG-20010904/DTD/svg10.dtd">
<svg version="1.0" xmlns="http://www.w3.org/2000/svg"
 width="1174.000000pt" height="1174.000000pt" viewBox="0 0 1174.000000 1174.000000"
 preserveAspectRatio="xMidYMid meet">
<metadata>
Created by potrace 1.11, written by Peter Selinger 2001-2013
</metadata>
<g transform="translate(0.000000,1174.000000) scale(0.100000,-0.100000)"
fill="#000000" stroke="none">
<path d="M5764 11321 c-86 -56 -167 -109 -340 -219 -45 -29 -86 -52 -92 -52
-7 0 -12 -4 -12 -10 0 -5 -6 -10 -14 -10 -8 0 -16 -4 -18 -9 -4 -12 -138 -97
-165 -105 -13 -4 -23 -12 -23 -17 0 -5 -6 -9 -14 -9 -8 0 -16 -4 -18 -8 -6
-14 -62 -49 -91 -56 -15 -4 -26 -10 -23 -15 3 -4 -7 -14 -22 -22 -14 -8 -48
-29 -75 -46 -27 -18 -55 -33 -63 -33 -8 0 -14 -4 -14 -10 0 -5 -6 -10 -14 -10
-8 0 -21 -6 -29 -14 -15 -16 -123 -86 -131 -86 -3 0 -37 -20 -75 -45 -38 -25
-73 -45 -77 -45 -4 0 -21 -10 -38 -23 -17 -13 -96 -63 -176 -112 -80 -49 -184
-114 -232 -144 -47 -31 -106 -68 -130 -82 -24 -15 -100 -63 -170 -108 -71 -44
-132 -81 -138 -81 -5 0 -10 -4 -10 -10 0 -5 -6 -10 -14 -10 -8 0 -16 -4 -18
-8 -1 -4 -39 -30 -83 -57 -44 -27 -110 -68 -147 -92 -37 -24 -71 -43 -77 -43
-5 0 -16 -6 -24 -14 -17 -17 -106 -75 -173 -112 -27 -15 -51 -30 -54 -34 -3
-4 -41 -28 -85 -55 -44 -26 -102 -63 -130 -82 -27 -18 -55 -33 -62 -33 -7 0
-13 -4 -13 -10 0 -5 -4 -10 -9 -10 -5 0 -35 -18 -67 -39 -33 -21 -108 -69
-169 -105 -60 -36 -115 -69 -121 -74 -5 -5 -59 -39 -120 -76 -60 -38 -161
-101 -224 -142 -63 -42 -127 -80 -142 -87 -16 -6 -28 -15 -28 -19 0 -4 -6 -8
-14 -8 -8 0 -16 -4 -18 -8 -2 -7 -73 -53 -192 -125 -11 -7 -38 -24 -59 -39
-22 -16 -46 -28 -53 -28 -7 0 -19 -6 -26 -13 -24 -24 -152 -107 -165 -107 -7
0 -13 -4 -13 -10 0 -5 -4 -10 -10 -10 -5 0 -31 -15 -57 -34 -27 -18 -68 -45
-93 -58 -25 -14 -70 -42 -100 -62 -30 -20 -60 -36 -67 -36 -7 0 -13 -4 -13
-10 0 -5 -6 -10 -14 -10 -8 0 -16 -4 -18 -8 -3 -8 -253 -165 -303 -190 -16 -9
-32 -19 -35 -22 -9 -12 -150 -100 -160 -100 -6 0 -10 -4 -10 -10 0 -5 -4 -10
-10 -10 -5 0 -29 -15 -53 -32 -23 -18 -60 -42 -82 -53 -22 -11 -42 -23 -45
-26 -3 -3 -10 -8 -15 -10 -43 -17 -135 -76 -135 -87 0 -7 -5 -10 -11 -6 -6 3
-15 0 -20 -7 -5 -8 -9 -1415 -9 -3229 0 -3147 1 -3217 20 -3303 33 -151 115
-339 162 -372 13 -9 17 -15 9 -15 -8 0 8 -24 36 -52 27 -29 57 -65 67 -80 10
-16 24 -28 32 -28 7 0 19 -8 26 -17 13 -18 72 -63 82 -63 3 0 16 -11 29 -24
48 -48 265 -139 377 -158 87 -15 10000 -23 10000 -8 0 5 17 10 38 10 43 0 127
21 162 41 14 7 28 13 32 14 3 0 10 3 14 8 4 4 17 7 29 7 12 0 50 14 85 32 180
90 416 347 451 493 7 28 23 73 36 100 13 28 28 82 35 120 8 52 12 903 15 3285
3 2871 1 3215 -12 3223 -9 4 -12 13 -9 19 4 6 2 8 -4 4 -6 -3 -14 0 -19 7 -9
16 -130 97 -144 97 -5 0 -22 11 -36 24 -15 14 -49 37 -77 52 -28 15 -141 84
-251 154 -218 138 -334 209 -404 248 -25 13 -57 35 -72 48 -14 13 -31 24 -37
24 -7 0 -25 11 -40 25 -14 13 -53 39 -87 57 -33 17 -109 64 -170 103 -162 105
-391 247 -460 285 -33 18 -71 43 -86 56 -14 13 -33 24 -42 24 -9 0 -17 3 -17
8 0 8 -76 60 -141 95 -25 14 -97 58 -160 99 -153 100 -426 268 -436 268 -4 0
-32 18 -61 40 -29 22 -59 40 -67 40 -8 0 -15 3 -15 8 0 8 -75 59 -140 95 -25
13 -103 62 -175 109 -143 93 -413 258 -423 258 -4 0 -31 18 -60 40 -29 22 -59
40 -67 40 -8 0 -15 3 -15 8 0 8 -76 60 -143 96 -27 15 -81 48 -120 75 -142 95
-461 291 -475 291 -4 0 -31 18 -60 40 -29 22 -57 40 -62 40 -5 0 -29 15 -52
33 -24 17 -99 65 -168 106 -69 41 -134 83 -146 93 -11 10 -25 18 -31 18 -13 0
-327 200 -331 212 -2 4 -7 8 -12 8 -5 0 -66 37 -137 82 -70 45 -179 112 -242
150 -62 38 -120 75 -128 83 -24 25 -45 18 -139 -44z m342 -442 c115 -72 326
-204 469 -292 143 -88 355 -221 470 -295 116 -74 374 -236 575 -360 201 -124
572 -356 825 -515 553 -349 1577 -987 1730 -1080 61 -36 125 -77 144 -91 l34
-25 -4470 -1 c-2458 0 -4472 3 -4476 7 -10 10 210 150 849 544 181 111 750
465 1264 787 514 322 1230 770 1590 995 360 225 671 420 690 433 61 42 78 36
306 -107z m4536 -2992 c74 -36 144 -107 177 -177 24 -51 26 -67 29 -225 2
-125 -1 -177 -10 -195 -13 -25 -216 -164 -346 -238 l-68 -39 -12 85 c-25 184
-138 317 -316 371 l-70 22 -2762 0 c-3040 0 -2821 4 -2937 -59 -159 -86 -252
-316 -202 -501 43 -162 144 -263 315 -316 51 -15 246 -16 2675 -16 1441 1
2625 -2 2632 -7 8 -5 -31 -35 -110 -86 -138 -88 -397 -253 -471 -300 l-49 -31
-2306 -2 c-1714 -2 -2319 -5 -2356 -14 -134 -31 -237 -115 -302 -245 -37 -76
-38 -80 -38 -188 0 -107 1 -114 36 -186 58 -121 150 -200 279 -241 65 -21 75
-21 1636 -19 864 1 1582 -2 1597 -5 25 -7 19 -12 -81 -74 -59 -37 -195 -125
-302 -196 -107 -70 -209 -134 -226 -141 -40 -17 -2534 -21 -2580 -4 -16 6 -58
30 -94 54 -155 104 -534 348 -637 410 l-111 68 20 66 c19 65 20 95 19 942 0
568 -4 894 -11 929 -30 158 -134 264 -291 300 -28 7 -364 11 -915 11 -846 0
-874 -1 -937 -20 -94 -29 -175 -92 -214 -166 -47 -90 -58 -156 -58 -360 l0
-181 -75 47 c-41 26 -104 65 -139 86 -35 21 -81 55 -103 75 l-38 37 0 234 c0
272 7 309 73 391 43 52 126 110 182 126 17 5 2048 9 4735 8 l4705 -2 57 -28z
m789 -619 c2 -18 2 -1374 -1 -3013 -5 -2787 -7 -2984 -23 -3043 -51 -189 -147
-326 -295 -423 -87 -57 -160 -86 -262 -105 -117 -21 -9894 -20 -9995 1 -120
25 -227 86 -331 190 -140 140 -194 269 -214 512 -12 147 -14 5773 -2 5773 4 0
59 -33 122 -74 63 -41 174 -112 245 -157 215 -136 1286 -820 1815 -1159 746
-478 1150 -735 1625 -1033 580 -364 880 -555 1260 -802 349 -226 362 -235 386
-235 9 0 67 33 130 73 63 41 292 189 509 329 217 140 546 349 730 463 520 323
958 601 1670 1060 698 450 1982 1268 2241 1428 86 54 206 130 265 171 60 41
112 74 115 75 4 1 8 -14 10 -31z m-8786 -182 c78 -20 154 -64 215 -122 98 -93
140 -200 140 -354 0 -151 -39 -244 -152 -366 -38 -39 -68 -75 -68 -78 0 -3 8
-6 19 -6 79 0 298 -161 397 -293 70 -93 140 -245 121 -263 -9 -10 -126 59
-307 179 -91 61 -248 163 -350 227 -471 297 -631 404 -645 431 -36 68 -28 248
16 364 85 228 352 351 614 281z"/>
</g>
</svg>
